<svg width="150" height="150" viewBox="0 0 150 150" fill="none" xmlns="http://www.w3.org/2000/svg">
<g clip-path="url(#clip0_91_3)">
<rect width="150" height="150" fill="url(#paint0_linear_91_3)"/>
<path d="M31.856 117V34.184H88.048C94.448 34.184 99.9947 35.08 104.688 36.872C109.467 38.5787 113.179 41.3093 115.824 45.064C118.469 48.7333 119.792 53.4693 119.792 59.272C119.792 63.1973 119.109 66.5253 117.744 69.256C116.379 71.9867 114.459 74.2053 111.984 75.912C109.595 77.6187 106.821 78.9413 103.664 79.88C100.507 80.7333 97.136 81.288 93.552 81.544L91.76 80.52C97.7333 80.6053 102.64 81.1173 106.48 82.056C110.32 82.9093 113.179 84.5307 115.056 86.92C117.019 89.224 118 92.68 118 97.288V117H100.976V98.44C100.976 95.2827 100.421 92.8507 99.312 91.144C98.2027 89.352 96.1973 88.1147 93.296 87.432C90.48 86.7493 86.384 86.408 81.008 86.408H48.88V117H31.856ZM48.88 73.096H88.048C92.8267 73.096 96.4533 71.944 98.928 69.64C101.488 67.336 102.768 64.2213 102.768 60.296C102.768 56.5413 101.488 53.6827 98.928 51.72C96.4533 49.7573 92.8267 48.776 88.048 48.776H48.88V73.096Z" fill="white"/>
</g>
<defs>
<linearGradient id="paint0_linear_91_3" x1="-12" y1="-14.5" x2="155.5" y2="156" gradientUnits="userSpaceOnUse">
<stop stop-color="#161616"/>
<stop offset="1" stop-color="#333333"/>
</linearGradient>
<clipPath id="clip0_91_3">
<rect width="150" height="150" fill="white"/>
</clipPath>
</defs>
</svg>
